<svg width="50" height="50" viewBox="0 0 50 50" fill="none" xmlns="http://www.w3.org/2000/svg">
<path fill-rule="evenodd" clip-rule="evenodd" d="M22.3721 0.0768947C16.2492 0.826947 11.0957 3.38228 6.90605 7.74578C-1.76666 16.7786 -2.33873 30.9539 5.574 40.7546C6.46883 41.863 8.61352 43.9672 9.67461 44.7779C17.3046 50.6074 27.3965 51.6373 35.9453 47.4588C38.5735 46.1742 40.2954 44.9606 42.4304 42.8882C47.5139 37.9539 50.2882 31.0255 49.9762 24.0437C49.6865 17.5624 47.1903 11.8649 42.6495 7.32131C38.8442 3.51372 34.2273 1.14577 28.8772 0.257899C27.4527 0.0214418 23.6811 -0.0834553 22.3721 0.0768947ZM27.3497 2.08271C32.1666 2.60857 36.7009 4.60963 40.3238 7.80862C45.7394 12.5907 48.6677 20.1528 47.8848 27.3344C47.0361 35.1197 42.4165 41.8749 35.5075 45.4342C27.9967 49.3035 19.1555 48.7721 12.1033 44.0274C6.50624 40.2617 2.85836 34.166 2.11352 27.3344C1.33066 20.1528 4.25734 12.5945 9.67461 7.80799C14.5157 3.53062 21.0937 1.39988 27.3497 2.08271ZM27.5761 11.0016C27.2233 11.3546 27.1735 11.6571 27.3898 12.1323C27.564 12.5147 27.9935 12.7153 28.6382 12.7153C29.5913 12.7153 31.0623 13.1039 32.1924 13.6542C34.1369 14.6012 35.3741 15.8391 36.3205 17.7849C36.8704 18.9156 37.2588 20.3875 37.2588 21.3412C37.2588 21.9863 37.4593 22.4161 37.8414 22.5904C38.3163 22.8068 38.6187 22.757 38.9714 22.404C39.2877 22.0875 39.2945 22.0476 39.219 20.9332C38.8517 15.5012 34.4747 11.1214 29.046 10.7539C27.9322 10.6784 27.8923 10.6852 27.5761 11.0016ZM14.1051 14.669C11.1725 17.5901 10.9709 17.9038 10.8882 19.671C10.8377 20.7544 10.8614 20.8846 11.4092 22.525C13.9476 30.1264 19.8794 36.0794 27.5281 38.7019C28.783 39.1321 29.0718 39.1855 30.1282 39.1834C31.9898 39.1795 32.2794 39.0001 35.3511 35.9476C37.4944 33.8176 37.8843 33.3737 37.8843 33.0641C37.8843 32.7586 37.5476 32.3578 35.8515 30.6452C32.4871 27.2477 32.6387 27.3029 31.0273 28.8908C30.4296 29.4799 29.8176 30.0244 29.6674 30.1009C29.2452 30.3156 28.746 30.2679 27.8863 29.9308C24.3656 28.5502 21.5427 25.7465 20.0989 22.1967C19.7204 21.2659 19.6615 20.7493 19.8839 20.3114C19.9603 20.1611 20.5045 19.5487 21.0932 18.9506C22.6361 17.3832 22.7095 17.6146 19.7282 14.6425C17.6898 12.6104 17.2338 12.2146 16.931 12.2146C16.6282 12.2146 16.168 12.6142 14.1051 14.669ZM18.4244 16.0877L19.789 17.4575L18.9599 18.3369C17.6984 19.6749 17.4889 20.6103 18.0651 22.3318C19.496 26.607 23.3803 30.4864 27.6742 31.9288C29.3522 32.4924 30.3256 32.2667 31.6637 31.0038L32.5195 30.1959L33.8889 31.562C34.6422 32.3133 35.244 32.9666 35.2265 33.0139C35.209 33.0612 34.3853 33.9269 33.3961 34.9377C31.4748 36.9008 30.9709 37.2436 30.0031 37.2451C28.7389 37.2472 24.9271 35.6565 22.6849 34.1911C19.9935 32.4323 17.4556 29.8741 15.6885 27.1386C14.2956 24.9826 12.7422 21.203 12.7442 19.9754C12.7458 18.9544 13.1042 18.4239 15.0889 16.5056C16.1017 15.5266 16.9595 14.7239 16.995 14.7218C17.0305 14.7198 17.6738 15.3344 18.4244 16.0877ZM27.5581 17.0282C27.2214 17.3649 27.176 17.6712 27.3923 18.146C27.5524 18.4977 27.9271 18.6706 28.7739 18.7834C29.9309 18.9376 31.0403 20.0477 31.1944 21.2054C31.3072 22.0527 31.4799 22.4276 31.8314 22.5879C32.6104 22.9431 33.2557 22.477 33.2557 21.559C33.2557 19.6122 31.7083 17.5742 29.7711 16.9691C28.6549 16.6206 27.9464 16.6395 27.5581 17.0282Z" fill="#073663"/>
</svg>
